<?xml version="1.0" encoding="iso-8859-1"?>
<!-- Generator: Adobe Illustrator 19.0.0, SVG Export Plug-In . SVG Version: 6.00 Build 0)  -->
<svg version="1.1" id="Layer_1" xmlns="http://www.w3.org/2000/svg" xmlns:xlink="http://www.w3.org/1999/xlink" x="0px" y="0px"
	 viewBox="0 0 491.52 491.52" style="enable-background:new 0 0 491.52 491.52;" xml:space="preserve">
<path style="fill:#EBF0F3;" d="M0,0v438.078c0,29.515,23.926,53.441,53.441,53.441h386.855l-51.22-51.225V0H0z"/>
<path style="fill:#E1E6E9;" d="M389.077,208.891v231.408c0,28.288,22.931,51.221,51.22,51.221c28.289,0,51.222-22.933,51.222-51.221
	V208.891H389.077z"/>
<path style="fill:#D5D6DB;" d="M430.748,208.891v233.862c0,5.275,4.276,9.551,9.551,9.551c5.275,0,9.551-4.276,9.551-9.551V208.891
	H430.748z"/>
<rect x="24.351" y="22.513" style="fill:#FCD462;" width="340.378" height="98.913"/>
<rect x="24.351" y="111.478" style="fill:#F6C358;" width="340.378" height="9.948"/>
<g>
	<rect x="210.893" y="147.169" style="fill:#64798A;" width="153.856" height="8.934"/>
	<rect x="210.893" y="183.823" style="fill:#64798A;" width="153.856" height="8.934"/>
	<rect x="210.893" y="220.467" style="fill:#64798A;" width="153.856" height="8.934"/>
	<rect x="210.893" y="257.126" style="fill:#64798A;" width="153.856" height="8.934"/>
	<rect x="210.893" y="293.786" style="fill:#64798A;" width="153.856" height="8.934"/>
	<rect x="24.356" y="330.445" style="fill:#64798A;" width="153.856" height="8.934"/>
	<rect x="210.893" y="330.445" style="fill:#64798A;" width="153.856" height="8.934"/>
	<rect x="24.356" y="367.053" style="fill:#64798A;" width="153.856" height="8.934"/>
	<rect x="210.893" y="367.053" style="fill:#64798A;" width="153.856" height="8.934"/>
	<rect x="24.356" y="403.712" style="fill:#64798A;" width="153.856" height="8.934"/>
	<rect x="210.893" y="403.712" style="fill:#64798A;" width="153.856" height="8.934"/>
	<rect x="24.356" y="440.371" style="fill:#64798A;" width="153.856" height="8.934"/>
	<rect x="210.893" y="440.371" style="fill:#64798A;" width="153.856" height="8.934"/>
</g>
<path style="fill:#E56353;" d="M97.03,307.36v-14.106c-17.66-1.801-33.511-8.822-47.538-21.057l14.106-16.811
	c10.819,9.404,21.953,15.002,33.433,16.811v-37.49c-14.562-3.475-25.224-8.051-31.986-13.721
	c-6.762-5.669-10.143-14.074-10.143-25.216c0-11.142,3.884-20.255,11.684-27.347c7.8-7.084,17.943-10.945,30.445-11.59v-9.663h12.36
	v9.852c14.169,1.038,27.567,5.866,40.195,14.499L137.02,189.3c-8.508-6.054-17.707-9.789-27.63-11.212v36.326h0.582
	c14.813,3.483,25.696,8.185,32.646,14.106c6.966,5.929,10.442,14.53,10.442,25.798c0,11.275-3.994,20.459-11.983,27.535
	c-7.989,7.092-18.54,10.953-31.687,11.598v13.909H97.03z M83.396,182.633c-3.287,2.894-4.922,6.503-4.922,10.819
	c0,4.317,1.289,7.729,3.868,10.237c2.563,2.516,7.47,4.93,14.688,7.249v-33.433C91.228,178.025,86.683,179.731,83.396,182.633z
	 M124.078,267.362c3.601-2.956,5.41-6.691,5.41-11.204c0-4.505-1.415-8.083-4.246-10.725c-2.846-2.642-8.13-5.119-15.851-7.438
	v34.777C115.571,272.134,120.461,270.326,124.078,267.362z"/>
<g>
</g>
<g>
</g>
<g>
</g>
<g>
</g>
<g>
</g>
<g>
</g>
<g>
</g>
<g>
</g>
<g>
</g>
<g>
</g>
<g>
</g>
<g>
</g>
<g>
</g>
<g>
</g>
<g>
</g>
</svg>
